<svg
   xmlns:dc="http://purl.org/dc/elements/1.1/"
   xmlns:cc="http://creativecommons.org/ns#"
   xmlns:rdf="http://www.w3.org/1999/02/22-rdf-syntax-ns#"
   xmlns:svg="http://www.w3.org/2000/svg"
   xmlns="http://www.w3.org/2000/svg"
   xmlns:sodipodi="http://sodipodi.sourceforge.net/DTD/sodipodi-0.dtd"
   xmlns:inkscape="http://www.inkscape.org/namespaces/inkscape"
   width="165.14519mm"
   height="45.523891mm"
   viewBox="0 0 165.14519 45.523891"
   version="1.1"
   id="svg8"
   inkscape:version="0.92.4 (5da689c313, 2019-01-14)"
   sodipodi:docname="Logo17_1.svg">
  <defs
     id="defs2">
    <style
       id="style2">.cls-1{fill:#fff;}</style>
    <filter
       height="1.0571625"
       y="-0.028581247"
       width="1.0151885"
       x="-0.0075942432"
       id="filter851"
       style="color-interpolation-filters:sRGB"
       inkscape:collect="always">
      <feGaussianBlur
         id="feGaussianBlur853"
         stdDeviation="1.9382289"
         inkscape:collect="always" />
    </filter>
  </defs>
  <sodipodi:namedview
     id="base"
     pagecolor="#ffffff"
     bordercolor="#666666"
     borderopacity="1.0"
     inkscape:pageopacity="0.0"
     inkscape:pageshadow="2"
     inkscape:zoom="1.4"
     inkscape:cx="313.77943"
     inkscape:cy="-16.841253"
     inkscape:document-units="mm"
     inkscape:current-layer="svg8"
     showgrid="false"
     fit-margin-top="0"
     fit-margin-left="0"
     fit-margin-right="0"
     fit-margin-bottom="0"
     inkscape:window-width="1920"
     inkscape:window-height="1016"
     inkscape:window-x="1366"
     inkscape:window-y="27"
     inkscape:window-maximized="1" />
  <metadata
     id="metadata5">
    <rdf:RDF>
      <cc:Work
         rdf:about="">
        <dc:format>image/svg+xml</dc:format>
        <dc:type
           rdf:resource="http://purl.org/dc/dcmitype/StillImage" />
        <dc:title></dc:title>
      </cc:Work>
    </rdf:RDF>
  </metadata>
  <rect
     transform="matrix(0.26458333,0,0,0.26458333,1.8475424,1.2307753)"
     ry="13.5714"
     y="0"
     x="0"
     height="162.75529"
     width="612.53625"
     id="rect4549"
     style="opacity:1;fill:none;fill-opacity:1;stroke:none;stroke-width:1.30396783;filter:url(#filter851)" />
  <path
     inkscape:connector-curvature="0"
     id="path866"
     d="m 56.577535,14.475965 a 6.5996319,6.5996319 0 0 0 -0.233579,1.73477 6.5996319,6.5996319 0 0 0 6.599597,6.5996 6.5996319,6.5996319 0 0 0 6.599597,-6.5996 6.5996319,6.5996319 0 0 0 -0.239778,-1.73477 h -4.795057 a 2.3386083,2.3386083 0 0 1 0.774115,1.73477 2.3386083,2.3386083 0 0 1 -2.338877,2.33888 2.3386083,2.3386083 0 0 1 -2.338358,-2.33888 2.3386083,2.3386083 0 0 1 0.774631,-1.73477 z"
     style="display:none;opacity:1;fill-opacity:1;stroke:none;stroke-width:0.26458332" />
  <g
     id="prom"
     transform="translate(0.61676745,-4.6963158e-6)">
    <path
       style="font-style:normal;font-variant:normal;font-weight:bold;font-stretch:normal;font-size:85.33333588px;line-height:1.25;font-family:'Nunito Sans';-inkscape-font-specification:'Nunito Sans Bold';letter-spacing:1.21000004px;word-spacing:0px;fill:#ef476f;fill-opacity:1;stroke:none;stroke-width:0.3775613"
       d="m 58.174069,12.4239 v 17.64491 l 6.056479,-0.47129 V 17.00191 h 8.935886 v 11.90005 l 6.056479,-0.47181 V 12.4239 Z"
       id="path4596"
       inkscape:connector-curvature="0" />
    <path
       style="font-style:normal;font-variant:normal;font-weight:bold;font-stretch:normal;font-size:85.33333588px;line-height:1.25;font-family:'Nunito Sans';-inkscape-font-specification:'Nunito Sans Bold';letter-spacing:1.21000004px;word-spacing:0px;fill:#ef476f;fill-opacity:1;stroke:none;stroke-width:0.3775613"
       d="m 85.626652,12.4239 v 15.5577 l 15.215608,-1.18391 c 0.6298,-0.28297 1.21633,-0.60701 1.71152,-1.0175 1.60464,-1.33196 2.40709,-3.23011 2.40709,-5.69475 0,-2.45415 -0.80245,-4.34227 -2.40709,-5.66373 -1.59414,-1.33196 -3.885478,-1.99781 -6.874508,-1.99781 z m 6.05648,4.38887 h 3.3507 c 1.17464,0 2.08204,0.28322 2.7218,0.84957 0.63976,0.56634 0.95963,1.37432 0.95963,2.4231 0,1.04878 -0.31987,1.86127 -0.95963,2.4381 -0.63976,0.56634 -1.54716,0.84956 -2.7218,0.84956 h -3.3507 z"
       id="path4598"
       inkscape:connector-curvature="0" />
    <path
       style="font-style:normal;font-variant:normal;font-weight:bold;font-stretch:normal;font-size:85.33333588px;line-height:1.25;font-family:'Nunito Sans';-inkscape-font-specification:'Nunito Sans Bold';letter-spacing:1.21000004px;word-spacing:0px;fill:#ef476f;fill-opacity:1;stroke:none;stroke-width:0.3775613"
       d="m 120.41006,11.99911 c -3.76513,0 -6.72284,1.08014 -8.87284,3.24063 -2.13952,2.16049 -3.20911,5.14432 -3.20911,8.9514 0,0.85938 0.0718,1.66357 0.18138,2.43912 l 6.2141,-0.48369 c -0.0822,-0.61145 -0.13436,-1.25506 -0.13436,-1.95543 0,-2.47513 0.50868,-4.39438 1.526,-5.75779 1.01732,-1.36342 2.44898,-2.04536 4.29483,-2.04536 1.85634,0 3.29301,0.68194 4.31033,2.04536 1.01732,1.36341 1.52601,3.28266 1.52601,5.75779 0,0.37531 -0.0348,0.7132 -0.0584,1.06298 l 6.26112,-0.48731 c 0.006,-0.19816 0.0429,-0.37284 0.0429,-0.57567 0,-3.80708 -1.07011,-6.79091 -3.20962,-8.9514 -2.13952,-2.16049 -5.09672,-3.24063 -8.87233,-3.24063 z"
       id="path4600"
       inkscape:connector-curvature="0" />
    <path
       style="font-style:normal;font-variant:normal;font-weight:bold;font-stretch:normal;font-size:85.33333588px;line-height:1.25;font-family:'Nunito Sans';-inkscape-font-specification:'Nunito Sans Bold';letter-spacing:1.21000004px;word-spacing:0px;fill:#ef476f;fill-opacity:1;stroke:none;stroke-width:0.3775613"
       d="m 151.30017,23.2837 4.83019,-0.37621 1.78439,-4.17545 V 22.769 l 5.72678,-0.44597 V 12.4239 h -7.69307 z"
       id="path1508"
       inkscape:connector-curvature="0" />
    <path
       style="font-style:normal;font-variant:normal;font-weight:bold;font-stretch:normal;font-size:85.33333588px;line-height:1.25;font-family:'Nunito Sans';-inkscape-font-specification:'Nunito Sans Bold';letter-spacing:1.21000004px;word-spacing:0px;fill:#ef476f;fill-opacity:1;stroke:none;stroke-width:0.3775613"
       d="m 137.51083,12.4239 v 11.93312 l 5.74228,-0.447 v -5.17798 l 2.14147,5.01106 4.49275,-0.34933 -4.66793,-10.96987 z"
       id="path4602"
       inkscape:connector-curvature="0" />
  </g>
  <path
     style="font-style:normal;font-variant:normal;font-weight:bold;font-stretch:normal;font-size:85.33333588px;line-height:1.25;font-family:'Nunito Sans';-inkscape-font-specification:'Nunito Sans Bold';letter-spacing:1.21000004px;word-spacing:0px;display:inline;fill:#d3d3d3;fill-opacity:1;stroke:none;stroke-width:0.38906458"
     d="m 13.859523,30.892416 c 0.04502,-0.0027 0.206584,-0.0098 0.536634,-0.05929 0.371498,-0.05522 0.882211,-0.154393 1.438348,-0.330226 0.278067,-0.08794 0.567688,-0.194954 0.856884,-0.325259 0.289198,-0.130291 0.578167,-0.284177 0.855138,-0.465003 0.276969,-0.180835 0.541927,-0.388719 0.783314,-0.628237 0.241387,-0.239517 0.458822,-0.510619 0.641271,-0.816986 0.569815,-0.902557 0.942261,-1.543274 1.178021,-2.000006 0.235763,-0.456722 0.334807,-0.729067 0.359474,-0.895692 0.148999,-0.201411 0.522643,-0.485707 0.768568,-0.682099 z"
     id="path1457"
     inkscape:connector-curvature="0" />
  <path
     style="font-style:normal;font-variant:normal;font-weight:bold;font-stretch:normal;font-size:85.33333588px;line-height:1.25;font-family:'Nunito Sans';-inkscape-font-specification:'Nunito Sans Bold';letter-spacing:1.21000004px;word-spacing:0px;display:inline;fill:#d3d3d3;fill-opacity:1;stroke:none;stroke-width:0.38906458"
     d="m 21.333481,28.597222 1.757958,3.723194 c 1.44e-4,-8.1e-5 3.75e-4,4.3e-5 5.28e-4,-3.9e-5 z"
     id="path1453"
     inkscape:connector-curvature="0" />
  <path
     id="path1196"
     d="m 10.445758,14.676802 c 0.0095,3.16e-4 0.01899,0.0026 0.02778,0.002 l -0.0055,-0.05635 -0.02721,-0.0021 z"
     style="font-style:normal;font-variant:normal;font-weight:bold;font-stretch:normal;font-size:85.33333588px;line-height:1.25;font-family:'Nunito Sans';-inkscape-font-specification:'Nunito Sans Bold';letter-spacing:1.21000004px;word-spacing:0px;fill:#d3d3d3;fill-opacity:1;stroke:none;stroke-width:0.39711079"
     inkscape:connector-curvature="0" />
  <g
     id="back">
    <g
       transform="translate(0.61676745,-4.6963158e-6)"
       style="fill:#073b4c;fill-opacity:1"
       id="g1158">
      <path
         inkscape:connector-curvature="0"
         id="path1485"
         d="m 64.230548,29.59752 -6.056479,0.47129 v 5.84254 h 6.056479 z"
         style="font-style:normal;font-variant:normal;font-weight:bold;font-stretch:normal;font-size:85.33333588px;line-height:1.25;font-family:'Nunito Sans';-inkscape-font-specification:'Nunito Sans Bold';letter-spacing:1.21000004px;word-spacing:0px;fill:#073b4c;fill-opacity:1;stroke:none;stroke-width:0.3775613" />
      <path
         inkscape:connector-curvature="0"
         id="path1483"
         d="m 79.222913,28.43015 -6.056479,0.47181 v 7.00939 h 6.056479 z"
         style="font-style:normal;font-variant:normal;font-weight:bold;font-stretch:normal;font-size:85.33333588px;line-height:1.25;font-family:'Nunito Sans';-inkscape-font-specification:'Nunito Sans Bold';letter-spacing:1.21000004px;word-spacing:0px;fill:#073b4c;fill-opacity:1;stroke:none;stroke-width:0.3775613" />
      <path
         inkscape:connector-curvature="0"
         id="path1494"
         d="M 100.84226,26.79769 85.626652,27.9816 v 7.92975 h 6.05648 v -8.14886 h 3.99614 c 2.06053,0 3.76534,-0.3368 5.162988,-0.9648 z"
         style="font-style:normal;font-variant:normal;font-weight:bold;font-stretch:normal;font-size:85.33333588px;line-height:1.25;font-family:'Nunito Sans';-inkscape-font-specification:'Nunito Sans Bold';letter-spacing:1.21000004px;word-spacing:0px;fill:#073b4c;fill-opacity:1;stroke:none;stroke-width:0.3775613" />
      <path
         inkscape:connector-curvature="0"
         id="path1503"
         d="m 132.44912,24.76681 -6.26112,0.48731 c -0.13133,1.94716 -0.60521,3.52351 -1.46761,4.6793 -1.01732,1.36342 -2.45399,2.04484 -4.31033,2.04484 -1.84585,0 -3.27751,-0.68142 -4.29483,-2.04484 -0.72823,-0.97597 -1.1847,-2.2466 -1.39164,-3.78685 l -6.2141,0.48369 c 0.37467,2.6507 1.3725,4.82532 3.02773,6.49676 2.15,2.16049 5.10771,3.24063 8.87284,3.24063 3.77561,0 6.73281,-1.08014 8.87233,-3.24063 2.02521,-2.04506 3.05853,-4.84919 3.16673,-8.36021 z"
         style="font-style:normal;font-variant:normal;font-weight:bold;font-stretch:normal;font-size:85.33333588px;line-height:1.25;font-family:'Nunito Sans';-inkscape-font-specification:'Nunito Sans Bold';letter-spacing:1.21000004px;word-spacing:0px;fill:#073b4c;fill-opacity:1;stroke:none;stroke-width:0.3775613" />
      <path
         inkscape:connector-curvature="0"
         id="path1512"
         d="m 137.51083,24.35702 v 11.55433 h 5.74228 V 23.91002 Z"
         style="font-style:normal;font-variant:normal;font-weight:bold;font-stretch:normal;font-size:85.33333588px;line-height:1.25;font-family:'Nunito Sans';-inkscape-font-specification:'Nunito Sans Bold';letter-spacing:1.21000004px;word-spacing:0px;fill:#073b4c;fill-opacity:1;stroke:none;stroke-width:0.3775613" />
      <path
         inkscape:connector-curvature="0"
         id="path1510"
         d="m 163.64153,22.32303 -5.72678,0.44597 v 13.14235 h 5.72678 z"
         style="font-style:normal;font-variant:normal;font-weight:bold;font-stretch:normal;font-size:85.33333588px;line-height:1.25;font-family:'Nunito Sans';-inkscape-font-specification:'Nunito Sans Bold';letter-spacing:1.21000004px;word-spacing:0px;fill:#073b4c;fill-opacity:1;stroke:none;stroke-width:0.3775613" />
      <path
         inkscape:connector-curvature="0"
         id="path1506"
         d="m 149.88733,23.39377 -4.49275,0.34933 3.27009,7.65328 h 3.83852 l 3.62717,-8.48889 -4.83019,0.37621 -0.73174,1.70997 z"
         style="font-style:normal;font-variant:normal;font-weight:bold;font-stretch:normal;font-size:85.33333588px;line-height:1.25;font-family:'Nunito Sans';-inkscape-font-specification:'Nunito Sans Bold';letter-spacing:1.21000004px;word-spacing:0px;fill:#073b4c;fill-opacity:1;stroke:none;stroke-width:0.3775613" />
    </g>
    <path
       inkscape:connector-curvature="0"
       id="path1455"
       d="m 21.333481,28.597222 0.412954,-0.273676 -0.203374,-3.856087 -0.265885,0.222188 c -0.245925,0.19639 -0.619569,0.480687 -0.768567,0.682098 -0.02466,0.166624 -0.123712,0.43897 -0.359473,0.895702 -0.235761,0.456722 -0.608207,1.097439 -1.178023,1.999996 -0.182449,0.306367 -0.399883,0.577469 -0.64127,0.816986 -0.241387,0.239518 -0.506345,0.447402 -0.783314,0.628237 -0.276971,0.180826 -0.565941,0.334711 -0.855137,0.465013 -0.289197,0.130301 -0.578817,0.237323 -0.856885,0.325249 -0.556137,0.17585 -1.06686,0.274925 -1.438349,0.330227 -0.330077,0.04913 -0.491613,0.05666 -0.536631,0.0593 l -0.452088,0.378037 2.492359,5.032518 c 2.302789,-1.265773 4.667735,-2.575631 7.191644,-3.982555 z"
       style="font-style:normal;font-variant:normal;font-weight:bold;font-stretch:normal;font-size:85.33333588px;line-height:1.25;font-family:'Nunito Sans';-inkscape-font-specification:'Nunito Sans Bold';letter-spacing:1.21000004px;word-spacing:0px;display:inline;fill:#073b4c;fill-opacity:1;stroke:none;stroke-width:0.38906458" />
    <path
       inkscape:connector-curvature="0"
       id="path1187"
       d="m 10.938907,19.925821 c 0.866454,0.04082 1.624704,0.213623 2.178803,0.63776 0.713805,0.545728 1.110496,1.366459 1.189516,2.466706 0.04474,0.622925 -0.05497,1.156027 -0.236839,1.63658 0,0 0.123084,-0.248045 0.204193,-0.6628 0.04056,-0.207378 0.07072,-0.45672 0.06985,-0.737087 -8.8e-4,-0.280367 -0.03269,-0.591869 -0.116154,-0.924746 l 6.575551,1.268027 c 0,0 -0.04933,0.791237 -0.28503,1.744691 0.0032,-0.0104 0.04367,-0.113489 0.04367,-0.113489 0.191072,-0.83777 0.367006,-1.685331 0.295451,-2.681645 -0.05679,-0.790694 -0.328971,-1.403028 -0.536728,-2.0701 z"
       style="font-style:normal;font-variant:normal;font-weight:bold;font-stretch:normal;font-size:85.33333588px;line-height:1.25;font-family:'Nunito Sans';-inkscape-font-specification:'Nunito Sans Bold';letter-spacing:1.21000004px;word-spacing:0px;fill:#073b4c;fill-opacity:1;stroke:none;stroke-width:0.39711079" />
    <path
       inkscape:connector-curvature="0"
       style="font-style:normal;font-variant:normal;font-weight:bold;font-stretch:normal;font-size:85.33333588px;line-height:1.25;font-family:'Nunito Sans';-inkscape-font-specification:'Nunito Sans Bold';letter-spacing:1.21000004px;word-spacing:0px;fill:#073b4c;fill-opacity:1;stroke:none;stroke-width:0.39711079"
       d="m 8.4274005,15.37477 1.4383781,4.527715 0.3328084,-0.0239 c 0.265421,-0.01907 0.47441,0.02989 0.712429,0.04398 l -0.0055,-0.05634 -0.04836,-5.16e-4 -0.407556,-4.63011 z"
       id="path1060-5" />
    <path
       style="font-style:normal;font-variant:normal;font-weight:bold;font-stretch:normal;font-size:85.33333588px;line-height:1.25;font-family:'Nunito Sans';-inkscape-font-specification:'Nunito Sans Bold';letter-spacing:1.21000004px;word-spacing:0px;fill:#073b4c;fill-opacity:1;stroke:none;stroke-width:0.44418827"
       d="m 42.708854,23.746815 v 6.30953 h -7.69957 c -3.359401,-0.0566 -4.527753,-0.0765 -8.402257,0 h -2.072585 v 11.32682 h 5.385768 v -5.94105 h 18.433808 v 5.94105 h 5.385788 V 30.056345 H 49.83407 l 0.122662,-6.41961 c -3.074085,-0.0497 -3.036442,0.10991 -7.247912,0.10991 z"
       id="path4594-1"
       inkscape:connector-curvature="0"
       sodipodi:nodetypes="ccccccccccccccc" />
  </g>
  <g
     id="rd">
    <path
       id="path881-5-9"
       d="m 45.563895,5.2901117 a 9.7046308,9.7046308 0 0 0 -9.361186,7.1535683 9.7046308,9.7046308 0 0 0 -0.343649,2.550748 9.7046308,9.7046308 0 0 0 1.181841,4.640544 9.7046308,9.7046308 0 0 0 8.522994,5.063773 9.7046308,9.7046308 0 0 0 4.393012,-1.06195 9.7046308,9.7046308 0 0 0 5.311304,-8.642367 9.7046308,9.7046308 0 0 0 -0.352433,-2.550748 9.7046308,9.7046308 0 0 0 -9.351883,-7.1535683 z m 0,6.2657673 a 3.4388782,3.4388782 0 0 1 2.30115,0.887801 3.4388782,3.4388782 0 0 1 1.137914,2.550748 3.4388782,3.4388782 0 0 1 -2.680972,3.350183 3.4388782,3.4388782 0 0 1 -0.758092,0.08888 3.4388782,3.4388782 0 0 1 -2.837553,-1.502751 3.4388782,3.4388782 0 0 1 -0.600999,-1.936316 3.4388782,3.4388782 0 0 1 1.13895,-2.550748 3.4388782,3.4388782 0 0 1 2.299602,-0.887801 z"
       style="display:inline;opacity:1;fill:#118ab2;fill-opacity:1;stroke:none;stroke-width:0.38906458"
       inkscape:connector-curvature="0" />
    <path
       id="path869-7-6-3-8"
       d="m 27.599299,5.7195406 -17.52514,4.7677094 0.371356,4.189589 5.27e-4,-3.7e-5 0.459225,5.18942 13.391987,0.8909 0.405708,1.068188 -3.159718,2.642291 0.203374,3.856084 -0.412954,0.273681 8.409408,-4.808823 -2.131115,-7.988293 -10.049983,0.628011 -0.213719,-2.247174 -0.178004,-1.865312 10.191602,-0.964582 z"
       style="font-style:normal;font-variant:normal;font-weight:bold;font-stretch:normal;font-size:85.33333588px;line-height:1.25;font-family:'Nunito Sans';-inkscape-font-specification:'Nunito Sans Bold';letter-spacing:1.21000004px;word-spacing:0px;display:inline;fill:#118ab2;fill-opacity:1;stroke:none;stroke-width:0.38906458"
       inkscape:connector-curvature="0" />
    <path
       sodipodi:nodetypes="ccccsccccccscccsccccccc"
       inkscape:connector-curvature="0"
       id="path1462"
       d="M 0,15.97984 1.7695947,40.619261 8.1223521,40.163008 7.5084745,31.615522 11.70052,31.314451 c 0.796609,-0.05721 1.412813,-0.04172 2.108587,-0.181204 0,0 2.417093,-0.239635 4.458632,-1.972886 0.302864,-0.256986 0.464779,-0.592826 0.703543,-0.89277 1.046593,-1.31426 1.495269,-2.741883 1.547687,-2.912497 0.235699,-0.953454 0.285029,-1.744693 0.285029,-1.744693 l -6.575551,-1.268028 c 0.08344,0.332879 0.115304,0.644376 0.116155,0.924749 8.79e-4,0.280367 -0.0293,0.529707 -0.06985,0.737085 -0.08111,0.414754 -0.204191,0.662803 -0.204191,0.662803 -0.139223,0.368178 -0.314217,0.713537 -0.58638,0.996962 -0.628498,0.642132 -1.559343,1.006224 -2.791625,1.094727 L 7.1777885,27.011128 6.6836659,20.131079 8.5644945,19.995999 9.8659718,19.902527 8.42739,15.374588 3.6889804,15.714899 Z"
       style="font-style:normal;font-variant:normal;font-weight:bold;font-stretch:normal;font-size:85.33333588px;line-height:1.25;font-family:'Nunito Sans';-inkscape-font-specification:'Nunito Sans Bold';letter-spacing:1.21000004px;word-spacing:0px;fill:#118ab2;fill-opacity:1;stroke:none;stroke-width:0.39711079" />
    <path
       inkscape:connector-curvature="0"
       id="path884-1-8"
       d="m 23.091862,32.320304 c -2.524074,1.406948 -4.889345,2.717081 -7.192245,3.982931 l 0.745809,1.505231 18.281222,-3.873479 -3.797832,-5.441943 -7.992795,3.921589 z"
       style="font-style:normal;font-variant:normal;font-weight:bold;font-stretch:normal;font-size:85.33333588px;line-height:1.25;font-family:'Nunito Sans';-inkscape-font-specification:'Nunito Sans Bold';letter-spacing:1.21000004px;word-spacing:0px;display:inline;fill:#118ab2;fill-opacity:1;stroke:none;stroke-width:0.38906458" />
  </g>
</svg>